# xmcd CD database file
#
# Track frame offsets:
#	150
#	19972
#	41122
#	58895
#	76485
#
# Disc length: 1302 seconds
#
# Revision: 4
# Processed by: cddbd v1.5.1PL2 Copyright (c) Steve Scherf et al.
# Submitted via: CDex 1.51
#
DISCID=40051405
DTITLE=Shania Twain - The Woman In Me - Bonus Disc The Radio Remixes
DYEAR=1995
DGENRE=Country
TTITLE0=I'm Outta Here (Mutt Lange Mis)
TTITLE1=I'm Outta Here (Dance Mix)
TTITLE2=You Win My Love (Mutt Mix)
TTITLE3=God Bless The Child (Extended Version)
TTITLE4=The Woman In Me (Needs The Man In You) (Internation Acoustic Version
EXTD=YEAR: 1995
EXTT0=
EXTT1=
EXTT2=
EXTT3=
EXTT4=
PLAYORDER=
